<svg xmlns="http://www.w3.org/2000/svg" xmlns:xlink="http://www.w3.org/1999/xlink" version="1.1" width="1000" height="1000" viewBox="0 0 1000 1000" xml:space="preserve">
<desc>Created with Fabric.js 3.5.0</desc>
<defs>
</defs>
<rect x="0" y="0" width="100%" height="100%" fill="#ffffff"/>
<g transform="matrix(0 -0.9276 0.9276 0 499.9807 500.0215)" id="300185">
<path style="stroke: none; stroke-width: 1; stroke-dasharray: none; stroke-linecap: butt; stroke-dashoffset: 0; stroke-linejoin: miter; stroke-miterlimit: 4; is-custom-font: none; font-file-url: none; fill: rgb(0,0,0); fill-rule: nonzero; opacity: 1;" vector-effect="non-scaling-stroke" transform=" translate(-500, -499.95)" d="M 940.4 225.2 h -66 v -49.6 c 0 -56.4 -47 -117 -150.2 -117 H 275.8 c -103.2 0 -150.2 60.7 -150.2 117 v 49.6 h -66 c -33.4 0 -49.6 16.2 -49.6 49.6 v 539.6 c 0 58.7 28.6 67.4 45.6 67.4 h 63.5 v 17.8 c 0 1.8 0.3 17.9 12.3 29.9 c 5.4 5.4 15.2 11.8 31.4 11.8 h 674.5 c 16.2 0 26 -6.4 31.4 -11.8 c 11.9 -12 12.2 -28.1 12.2 -29.9 v -17.9 h 63.5 c 17 0 45.6 -8.8 45.6 -67.4 V 274.8 C 990 241.5 973.8 225.2 940.4 225.2 z M 149.4 175.6 c 0 -46.4 39.1 -93.2 126.4 -93.2 h 448.3 c 87.3 0 126.4 46.8 126.4 93.2 v 61.5 V 249 v 530.7 H 149.4 V 249 v -11.9 V 175.6 z M 966.2 814.4 c 0 29 -7.3 43.6 -21.8 43.6 h -87.3 v 41.6 c -0.1 5.4 -2.3 18 -19.8 18 H 162.8 c -17.6 0 -19.7 -12.6 -19.8 -17.9 v -41.7 H 55.6 c -14.5 0 -21.8 -14.7 -21.8 -43.6 V 274.8 c 0 -22.2 7.6 -25.8 25.8 -25.8 h 68.3 v 552.3 h 744.3 V 249 h 68.3 c 18.2 0 25.8 3.6 25.8 25.8 L 966.2 814.4 L 966.2 814.4 z" stroke="none" stroke-opacity ="0"/>
</g>
</svg>